<?xml version="1.0" encoding="UTF-8" standalone="no"?>
<!-- Created with Inkscape (http://www.inkscape.org/) -->

<svg
   version="1.1"
   id="svg700"
   width="1107.2917"
   height="559.82349"
   viewBox="0 0 1107.2918 559.82349"
   xmlns="http://www.w3.org/2000/svg"
   xmlns:svg="http://www.w3.org/2000/svg">
  <defs
     id="defs704" />
  <g
     id="g706"
     transform="translate(-18.370914,-3.8718398)">
    <path
       style="fill:#000000;stroke-width:1.33333"
       d="m 263.5529,561.79883 c -10.61113,-4.62356 -16.64773,-18.43294 -13.82049,-31.6159 4.22429,-19.69717 31.11679,-26.52958 45.01396,-11.43641 6.36818,6.91623 -0.28488,10.39243 -7.79515,4.07295 -5.3568,-4.50744 -13.985,-5.62715 -19.87821,-2.57966 -8.59749,4.44595 -11.96171,16.26652 -7.60036,26.70471 4.06188,9.72143 19.27076,12.29013 27.90133,4.7124 7.38489,-6.48401 14.4722,-4.59205 9.23931,2.46644 -4.5244,6.10283 -12.06417,9.49336 -21.0356,9.45944 -4.4,-0.0167 -9.81116,-0.81943 -12.02479,-1.78397 z m 49.32021,0.24012 c -0.38094,-0.99276 -0.52826,-12.58484 -0.32737,-25.76019 l 0.36528,-23.95517 h 3.33333 c 3.16994,0 3.35315,0.42233 3.73762,8.61553 0.22236,4.73855 1.04582,9.38855 1.82993,10.33333 1.56767,1.88894 19.26436,2.4195 22.03144,0.66052 0.92148,-0.58577 1.76891,-4.95544 2,-10.31292 0.3898,-9.03654 0.50353,-9.30826 4.06768,-9.71836 l 3.66667,-0.42189 v 25.46373 c 0,21.49974 -0.31399,25.58424 -2.01698,26.23774 -4.19797,1.6109 -5.98302,-2.08996 -5.98302,-12.40431 v -9.88677 l -12.33334,0.38336 -12.33333,0.38337 -0.66667,10.66667 c -0.61354,9.81664 -0.90621,10.70068 -3.67262,11.09352 -1.65328,0.23476 -3.31766,-0.38542 -3.69862,-1.37816 z m 52.99836,-1.40264 c -1.94828,-2.07386 -2.46454,-3.62439 -1.64714,-4.94698 1.02946,-1.66573 1.51729,-1.64525 3.60529,0.15127 3.47371,2.9888 6.0008,3.61979 9.41473,2.35075 4.62866,-1.72058 3.8875,-6.22822 -1.24264,-7.55756 -5.59557,-1.44996 -6.21466,-3.85146 -1.2727,-4.9369 4.76528,-1.04662 6.16102,-3.87048 3.3182,-6.7133 -2.07195,-2.07195 -6.39038,-1.67999 -9.06952,0.82318 -1.96082,1.83204 -4.73334,1.39806 -4.73334,-0.74092 0,-2.9844 5.42708,-6.0756 10.66667,-6.0756 8.91883,0 13.87452,7.26834 8.57143,12.57143 -1.90476,1.90476 -1.90476,2.28572 0,4.19048 3.10996,3.10996 2.65097,9.36429 -0.86811,11.82916 -4.54864,3.18599 -13.32749,2.69049 -16.74287,-0.94501 z m -52.55822,-61.31272 c -2.3595,-1.86599 -3.70232,-4.68822 -12.21236,-25.66667 -11.31678,-27.89748 -13.02684,-32.02416 -15.60283,-37.65213 -1.42286,-3.10868 -2.58704,-6.018 -2.58704,-6.46516 0,-0.44718 -0.8803,-2.70371 -1.95624,-5.01454 -2.69174,-5.78117 -10.09778,-23.68824 -10.9675,-26.51837 -0.6563,-2.1356 -4.4701,-2.34423 -48.74924,-2.66667 -44.69328,-0.32545 -48.14016,-0.51766 -49.51547,-2.76122 -1.18344,-1.93056 -0.96209,-2.79468 1.10996,-4.33334 2.13229,-1.58338 10.41077,-1.9219 47,-1.9219 24.42651,0 44.41183,-0.26095 44.41183,-0.57987 0,-0.31893 -0.58515,-2.11893 -1.30034,-4 l -1.30033,-3.42013 H 218.5322 c -35.45686,0 -43.57104,-0.34124 -45.69967,-1.92191 -2.07201,-1.53863 -2.29338,-2.40281 -1.11004,-4.33333 1.3708,-2.23632 4.68871,-2.43695 45.68992,-2.76276 l 44.21179,-0.35134 -0.35659,-32.6795 -0.35659,-32.67951 -35.33333,-16.55357 c -19.43333,-9.10447 -36.98333,-17.46268 -39,-18.57382 l -3.66667,-2.02024 v -38.82508 -38.82508 l 17.66667,-8.41362 c 29.60851,-14.10084 47.98505,-22.75412 55.37168,-26.07378 l 7.03833,-3.16314 -0.1296,-36.07833 -0.12966,-36.078324 4.09129,-0.41781 4.09129,-0.417812 v 36.784146 36.78414 l 3.13363,1.1914 c 5.32077,2.02296 63.82425,29.46349 70.53304,33.08289 l 6.33333,3.41686 0.0141,36.12142 0.0141,36.12143 34.98588,16.34223 c 19.24223,8.98822 35.48635,16.33822 36.09806,16.33333 1.13147,-0.009 22.03883,-9.62576 53.86623,-24.77675 l 17.64509,-8.3997 0.35491,-36.3847 0.35492,-36.3847 3.587,-1.2609 c 7.52164,-2.64398 7.74184,-1.55956 7.78961,38.36111 l 0.0433,36.17008 35.62337,16.52301 c 19.59287,9.08766 36.96376,17.34518 38.60199,18.35004 2.94984,1.8094 2.98203,2.1769 3.33333,38.05799 l 0.35474,36.23093 22,10.37538 c 12.1,5.70645 27.74754,13.095 34.77233,16.41901 7.02478,3.324 13.42846,6.04364 14.2304,6.04364 0.80193,0 7.95438,-3.06217 15.89433,-6.80484 7.93995,-3.74267 18.03627,-8.47663 22.43627,-10.51991 4.4,-2.04329 14.48042,-6.78112 22.40094,-10.52849 7.92046,-3.74739 15.52216,-6.81343 16.89262,-6.81343 1.37045,0 9.29002,3.21626 17.59905,7.14724 8.30902,3.93099 18.40732,8.66822 22.44065,10.52719 4.03333,1.85897 13.82965,6.44272 21.7696,10.18609 14.45688,6.81587 17.93129,7.78736 20.29707,5.67535 2.40816,-2.14985 70.72401,-33.53587 72.99529,-33.53587 1.2535,0 11.12736,4.13518 21.9419,9.18927 42.73571,19.97223 54.46295,25.54055 57.66281,27.37939 6.0057,3.45129 4.6965,8.69497 -2.18322,8.74426 -2.69031,0.0193 -7.77409,-2.2288 -46.30967,-20.47833 -8.70441,-4.1222 -19.31872,-9.06227 -23.58736,-10.97792 l -7.76117,-3.483 -37.23017,17.47984 c -20.4766,9.61391 -38.54564,17.47983 -40.15343,17.47983 -1.60777,0 -19.49369,-7.8 -39.74648,-17.33334 -20.25267,-9.53333 -37.25176,-17.33333 -37.77564,-17.33333 -0.8794,0 -8.76573,3.64077 -42.58609,19.66013 -26.67162,12.6333 -32.24307,15.00654 -35.2295,15.00654 -1.69497,0 -9.18298,-3 -16.64002,-6.66667 -7.45704,-3.66667 -13.81628,-6.66667 -14.13165,-6.66667 -0.31536,0 -9.8805,-4.45524 -21.25584,-9.90054 -11.37534,-5.4453 -21.87566,-10.27924 -23.33403,-10.74212 -1.63145,-0.5178 -5.87512,0.67188 -11.03028,3.09224 -4.60827,2.1636 -14.37868,6.77689 -21.71201,10.25176 -37.78803,17.90568 -43.96371,20.632 -46.73585,20.632 -1.6558,0 -11.82467,-4.2 -22.59748,-9.33334 -10.77282,-5.13333 -19.75196,-9.33333 -19.95366,-9.33333 -0.20169,0 -7.79462,-3.53968 -16.8732,-7.86595 -11.8886,-5.66536 -17.12413,-7.5361 -18.71428,-6.68694 -1.21428,0.64846 -4.81428,3.76162 -8,6.91817 -3.1857,3.15653 -9.3922,8.75469 -13.79219,12.44036 -4.4,3.68567 -10.7,9.22887 -14,12.31821 -6.1641,5.77062 -10.48263,7.74372 -13.99702,6.39512 -5.96298,-2.28821 0.33408,-10.15949 22.2357,-27.79446 4.28658,-3.45152 10.86794,-9.30152 14.62521,-13 3.75728,-3.69848 7.34997,-6.72451 7.98376,-6.72451 0.63378,0 1.15234,-15.31485 1.15234,-34.033 v -34.033 l -3.59302,-1.36607 c -1.97616,-0.75133 -7.52616,-3.20628 -12.33333,-5.45544 -4.80718,-2.24914 -12.94031,-6.05116 -18.07364,-8.44889 -5.13334,-2.39775 -15.8509,-7.42795 -23.81679,-11.17823 -7.96591,-3.75029 -14.95444,-6.8187 -15.53008,-6.8187 -0.96864,0 -9.88396,4.13108 -44.65313,20.69089 -7.33334,3.49271 -16.63333,7.73497 -20.66667,9.42725 l -7.33333,3.07688 -0.35511,35.40248 c -0.21492,21.42587 0.13906,35.4025 0.89659,35.4025 0.68844,0 1.98923,2.25 2.89061,5 0.9014,2.75 2.38107,6.2 3.28814,7.66666 0.90708,1.46667 2.3943,5.06667 3.30493,8 0.91064,2.93334 2.12439,5.93334 2.69721,6.66667 0.57284,0.73333 2.35274,4.63333 3.95533,8.66667 1.60262,4.03333 4.58139,11.53333 6.61951,16.66666 4.61615,11.62647 23.55395,57.19059 26.12988,62.86818 2.56849,5.66117 2.39975,8.10722 -0.67277,9.75158 -3.33559,1.78515 -4.45719,1.73939 -7.01876,-0.28642 z m 222.56235,-111.996 34.96459,-16.33734 0.0355,-33.75384 0.0355,-33.75384 -17,-8.03745 c -58.24678,-27.53857 -53.27476,-25.57272 -58.90293,-23.28935 -2.62005,1.06298 -12.86373,5.78423 -22.76373,10.49168 -9.9,4.70746 -24.15,11.45951 -31.66667,15.00456 l -13.66667,6.44556 v 33.03307 33.03307 l 14.33334,6.80464 c 7.88333,3.74256 23.63333,11.23201 35,16.64324 11.36666,5.41124 21.56666,9.88692 22.66666,9.94597 1.1,0.0591 17.73407,-7.24444 36.96459,-16.22997 z m -42.96458,2.3508 c -26.4574,-12.6851 -47.23671,-22.4946 -49.66667,-23.4467 -3.95253,-1.54865 -3.90467,-6.21974 0.0824,-8.03636 3.29504,-1.50132 3.76332,-1.32313 33.58432,12.7794 7.33333,3.46798 16.41365,7.72591 20.17851,9.46206 7.2461,3.34154 9.51413,6.37733 7.01457,9.38913 -1.94319,2.34139 -6.11665,2.28637 -11.19308,-0.14753 z m 54.59626,-25.05747 c -0.35936,-0.93647 -0.49052,-13.98647 -0.29149,-29 l 0.36189,-27.29733 3.93425,-0.44772 c 6.8335,-0.77766 7.39908,1.49788 7.39908,29.76922 0,18.03883 -0.4672,25.9457 -1.6,27.0785 -2.1226,2.1226 -8.97736,2.05081 -9.80373,-0.10267 z m -105.9155,-49.61369 c -3.71059,-4.47098 -2.08859,-5.45839 45.27348,-27.56082 11.53842,-5.38462 16.3098,-5.83254 17.90301,-1.68068 1.24727,3.25032 0.18216,4.14602 -11.60229,9.75682 -50.07734,23.84278 -48.46335,23.23302 -51.5742,19.48468 z M 283.63712,286.99025 c 8.55127,-4.03333 15.70393,-7.33333 15.89478,-7.33333 0.19085,0 9.13953,-4.20591 19.88593,-9.34647 l 19.53892,-9.34646 -0.3562,-33.44906 -0.3562,-33.44906 -35.17822,-16.5378 c -19.34803,-9.0958 -35.66256,-16.53782 -36.25449,-16.53782 -0.59195,0 -6.36175,2.49328 -12.82178,5.54063 -6.46002,3.04735 -22.2455,10.46416 -35.07884,16.48179 l -23.33333,10.94116 -0.3564,33.59978 -0.3564,33.59978 15.02307,7.07633 c 8.26269,3.89197 17.72306,8.31356 21.02306,9.82573 3.3,1.51219 12.3,5.76615 20,9.45326 7.7,3.6871 14.71512,6.72881 15.58916,6.75936 0.87406,0.0305 8.58567,-3.24448 17.13694,-7.27782 z m 22.20051,-85.34041 c -6.8237,-3.29611 -12.59889,-5.99292 -12.83376,-5.99292 -0.23488,0 -7.40185,-3.30247 -15.92661,-7.33883 -13.63,-6.4536 -15.49957,-7.73716 -15.49957,-10.64125 0,-6.76072 4.54725,-5.64877 34.7781,8.50441 17.37023,8.13222 28.72892,14.19814 28.99867,15.48624 0.56832,2.71395 -2.13816,5.99148 -4.94003,5.98235 -1.19354,-0.004 -7.7531,-2.70388 -14.5768,-6 z m 40.40672,277.4432 c -9.12266,-4.08888 -14.19048,-12.21489 -14.19048,-22.75384 0,-14.51405 9.8408,-24.68228 23.8875,-24.68228 11.47525,0 18.12896,3.92133 23.09941,13.61355 4.50959,8.79353 2.08373,23.05409 -4.99025,29.3356 -6.74691,5.99109 -19.76392,8.09158 -27.80618,4.48697 z m 20.30559,-8.2778 c 7.24544,-4.50997 9.30328,-19.57116 3.55551,-26.02252 -8.64404,-9.70215 -23.68211,-7.73408 -28.76872,3.76504 -7.24899,16.38755 10.07478,31.68047 25.21321,22.25748 z m 25.69441,-14.49165 v -24.66667 h 3.33334 c 3.23722,0 3.33333,0.26836 3.33333,9.30793 0,10.92303 0.22984,11.07903 15.36122,10.42662 l 9.30544,-0.40122 0.39342,-9.74942 c 0.39257,-9.72831 0.40124,-9.74854 4,-9.33334 l 3.60658,0.4161 v 24 24 h -3.33333 c -3.2,0 -3.36,-0.4 -4,-10 l -0.66667,-10 h -12 -11.99999 l -0.38942,10.33333 c -0.37613,9.98056 -0.5013,10.33333 -3.66666,10.33333 h -3.27726 z m 611.30855,-21.19143 c -10.6112,-4.62356 -16.6478,-18.43293 -13.8205,-31.61589 4.22431,-19.69718 31.1167,-26.52959 45.0139,-11.43642 6.3682,6.91623 -0.2849,10.39243 -7.7951,4.07295 -5.3568,-4.50744 -13.985,-5.62715 -19.8782,-2.57965 -8.59749,4.44594 -11.96169,16.26652 -7.60039,26.7047 4.06189,9.72143 19.27079,12.29014 27.90129,4.7124 7.3849,-6.48401 14.4722,-4.59205 9.2393,2.46644 -4.5244,6.10283 -12.0641,9.49336 -21.0356,9.45944 -4.4,-0.0167 -9.8111,-0.81942 -12.0247,-1.78397 z m 49.3202,0.24012 c -0.381,-0.99276 -0.5283,-12.58484 -0.3274,-25.76019 l 0.3653,-23.95517 h 3.3333 c 3.1699,0 3.3531,0.42233 3.7376,8.61553 0.2224,4.73855 1.0458,9.38855 1.8299,10.33334 1.5677,1.88893 19.2644,2.41949 22.0315,0.66052 0.9215,-0.58578 1.7689,-4.95544 2,-10.31292 0.3898,-9.03655 0.5035,-9.30827 4.0677,-9.71836 l 3.6666,-0.4219 v 25.46374 c 0,21.49973 -0.314,25.58424 -2.0169,26.23773 -4.198,1.61091 -5.9831,-2.08996 -5.9831,-12.40431 v -9.88677 l -12.3333,0.38336 -12.3333,0.38337 -0.6667,10.66667 c -0.6135,9.81664 -0.9062,10.70068 -3.6726,11.09352 -1.6533,0.23476 -3.3177,-0.38541 -3.6986,-1.37816 z m 52.9983,-1.40264 c -1.9483,-2.07385 -2.4645,-3.62439 -1.6471,-4.94697 1.0294,-1.66574 1.5173,-1.64526 3.6053,0.15126 3.4737,2.9888 6.0008,3.61979 9.4147,2.35075 4.6287,-1.72057 3.8875,-6.22821 -1.2426,-7.55756 -5.5956,-1.44996 -6.2147,-3.85145 -1.2727,-4.93689 4.7652,-1.04663 6.161,-3.87048 3.3182,-6.71331 -2.072,-2.07195 -6.3904,-1.67999 -9.0696,0.82319 -1.9608,1.83204 -4.7333,1.39805 -4.7333,-0.74092 0,-2.9844 5.4271,-6.0756 10.6667,-6.0756 8.9188,0 13.8745,7.26833 8.5714,12.57142 -1.9048,1.90476 -1.9048,2.28572 0,4.19048 3.11,3.10996 2.651,9.3643 -0.8681,11.82916 -4.5487,3.18599 -13.3275,2.6905 -16.7429,-0.94501 z M 32.88623,405.79883 c -10.611133,-4.62356 -16.647723,-18.43294 -13.820484,-31.6159 4.224287,-19.69717 31.116788,-26.52958 45.01396,-11.43641 6.368178,6.91623 -0.284882,10.39243 -7.795158,4.07295 -5.356793,-4.50744 -13.984991,-5.62715 -19.878206,-2.57966 -8.59749,4.44595 -11.961714,16.26652 -7.600358,26.70471 4.061873,9.72143 19.270761,12.29013 27.901328,4.7124 7.384888,-6.48401 14.472202,-4.59205 9.239312,2.46644 -4.524405,6.10283 -12.064181,9.49336 -21.035603,9.45944 -4.4,-0.0167 -9.811156,-0.81943 -12.024791,-1.78397 z m 49.320226,0.24012 c -0.38096,-0.99276 -0.52828,-12.58484 -0.32737,-25.76019 l 0.36527,-23.95517 h 3.33333 c 3.16994,0 3.35315,0.42233 3.73762,8.61553 0.22235,4.73855 1.04582,9.38855 1.82992,10.33333 1.56768,1.88894 19.264384,2.4195 22.031454,0.66052 0.92149,-0.58577 1.7689,-4.95544 2,-10.31292 0.3898,-9.03654 0.50353,-9.30826 4.06768,-9.71836 l 3.66667,-0.42189 v 25.46373 c 0,21.49974 -0.31399,25.58424 -2.01698,26.23774 -4.19797,1.6109 -5.98302,-2.08996 -5.98302,-12.40431 v -9.88677 l -12.33334,0.38336 -12.333334,0.38337 -0.66667,10.66667 c -0.61354,9.81664 -0.90621,10.70068 -3.67263,11.09352 -1.65327,0.23476 -3.31765,-0.38542 -3.6986,-1.37816 z m 52.998364,-1.40264 c -1.94829,-2.07386 -2.46456,-3.62439 -1.64716,-4.94698 1.02948,-1.66573 1.5173,-1.64525 3.6053,0.15127 3.47371,2.9888 6.0008,3.61979 9.41473,2.35075 4.62866,-1.72058 3.8875,-6.22822 -1.24264,-7.55756 -5.59557,-1.44996 -6.21466,-3.85146 -1.2727,-4.9369 4.76528,-1.04662 6.16102,-3.87048 3.3182,-6.7133 -2.07195,-2.07195 -6.39038,-1.67999 -9.06952,0.82318 -1.96082,1.83204 -4.73334,1.39806 -4.73334,-0.74092 0,-2.9844 5.42708,-6.0756 10.66667,-6.0756 8.91883,0 13.87452,7.26834 8.57143,12.57143 -1.90476,1.90476 -1.90476,2.28572 0,4.19048 3.10996,3.10996 2.65097,9.36429 -0.86811,11.82916 -4.54864,3.18599 -13.32749,2.69049 -16.74286,-0.94501 z M 460.48386,168.08124 c -9.42983,-4.64683 -14.08184,-16.18577 -11.68223,-28.97683 2.52052,-13.43553 20.07484,-21.78554 33.77008,-16.06331 6.61181,2.76259 9.58527,5.6054 12.49833,11.94915 5.39507,11.7488 1.50099,26.01866 -8.73757,32.01884 -6.83189,4.00376 -18.88497,4.50371 -25.84861,1.07215 z m 24.71469,-10.27336 c 3.6124,-3.94181 4.37913,-5.84401 4.37913,-10.86425 0,-11.7871 -5.98301,-17.95338 -17.41976,-17.95338 -6.0089,0 -7.40174,0.55485 -11.38024,4.53334 -2.80966,2.80966 -4.61217,5.97817 -4.74069,8.33333 -0.81668,14.96557 5.84536,22.49696 18.82823,21.28517 4.75184,-0.44353 6.8385,-1.52069 10.33333,-5.33421 z m 22.67947,4.92021 c -1.00295,-10.67672 -0.44239,-38.03905 0.82092,-40.07117 1.46364,-2.35434 5.77145,-2.07143 6.73609,0.44238 0.44513,1.15998 0.80932,5.68334 0.80932,10.05191 v 7.94287 l 11.66666,-0.38525 11.66667,-0.38524 0.66667,-9.33334 c 0.63492,-8.88889 0.8254,-9.33333 4,-9.33333 h 3.33333 l 0.36341,24.33333 0.36342,24.33334 h -3.974 -3.97399 l -0.38943,-10.33334 -0.38941,-10.33333 -11.60967,-0.38441 -11.60965,-0.38442 -0.39034,10.38442 c -0.37928,10.09036 -0.48906,10.39586 -3.87672,10.78892 -3.33642,0.38709 -3.51767,0.0716 -4.21328,-7.33334 z M 214.21957,55.132166 c -10.61113,-4.623567 -16.64773,-18.432935 -13.82049,-31.615892 4.22429,-19.6971762 31.11678,-26.5295866 45.01396,-11.436418 6.36818,6.916226 -0.28488,10.392431 -7.79515,4.072951 -5.3568,-4.507445 -13.985,-5.627151 -19.87821,-2.579652 -8.5975,4.445936 -11.96171,16.266509 -7.60036,26.704703 4.06188,9.72143 19.27076,12.290137 27.90133,4.712398 7.38489,-6.484017 14.4722,-4.592052 9.23931,2.466442 -4.5244,6.102825 -12.06418,9.493365 -21.0356,9.459436 -4.4,-0.01664 -9.81116,-0.819427 -12.02479,-1.783968 z m 49.32021,0.240114 c -0.38094,-0.992753 -0.52826,-12.584834 -0.32737,-25.760181 l 0.36528,-23.9551757 h 3.33333 c 3.16994,0 3.35315,0.4223283 3.73762,8.6155357 0.22236,4.738545 1.04582,9.388545 1.82993,10.333333 1.56767,1.888934 19.26436,2.419492 22.03144,0.660519 0.92148,-0.585769 1.7689,-4.955439 2,-10.312917 0.3898,-9.0365522 0.50353,-9.3082664 4.06768,-9.7183671 l 3.66666,-0.4218965 V 30.276872 c 0,21.499726 -0.31398,25.584232 -2.01697,26.237731 -4.19797,1.610911 -5.98303,-2.089957 -5.98303,-12.404308 V 34.22352 l -12.33333,0.383368 -12.33333,0.383368 -0.66667,10.666667 c -0.61354,9.816645 -0.90621,10.700683 -3.67262,11.093516 -1.65328,0.234767 -3.31766,-0.385404 -3.69862,-1.378159 z m 52.99836,-1.402633 c -1.94828,-2.073856 -2.46455,-3.624396 -1.64715,-4.946983 1.02947,-1.665721 1.5173,-1.645253 3.6053,0.151278 3.4737,2.988792 6.0008,3.619778 9.41473,2.350745 4.62865,-1.720575 3.88749,-6.228212 -1.24264,-7.557564 -5.59557,-1.449959 -6.21467,-3.851453 -1.27271,-4.936889 4.76528,-1.046632 6.16103,-3.870486 3.3182,-6.713318 -2.07194,-2.071945 -6.39037,-1.679981 -9.06952,0.8232 -1.96081,1.832031 -4.73333,1.398042 -4.73333,-0.740921 0,-5.321361 12.5744,-8.059392 18.36999,-4 3.45614,2.420776 3.8753,7.488625 0.8681,10.495823 -1.90476,1.904762 -1.90476,2.285714 0,4.190477 3.10996,3.109959 2.65098,9.364299 -0.8681,11.829156 -4.54864,3.185995 -13.3275,2.690497 -16.74287,-0.945004 z"
       id="path710" />
  </g>
</svg>
