<?xml version="1.0" encoding="UTF-8" standalone="no"?>
<!-- Created with Inkscape (http://www.inkscape.org/) -->

<svg
   version="1.1"
   id="svg318"
   width="1082.5326"
   height="509.2565"
   viewBox="0 0 1082.5326 509.2565"
   sodipodi:docname="thc-molecule.png"
   inkscape:version="1.2.1 (9c6d41e410, 2022-07-14)"
   inkscape:dataloss="true"
   inkscape:export-filename="thc-molecule.svg"
   inkscape:export-xdpi="96"
   inkscape:export-ydpi="96"
   xmlns:inkscape="http://www.inkscape.org/namespaces/inkscape"
   xmlns:sodipodi="http://sodipodi.sourceforge.net/DTD/sodipodi-0.dtd"
   xmlns="http://www.w3.org/2000/svg"
   xmlns:svg="http://www.w3.org/2000/svg">
  <defs
     id="defs322" />
  <sodipodi:namedview
     id="namedview320"
     pagecolor="#ffffff"
     bordercolor="#000000"
     borderopacity="0.25"
     inkscape:showpageshadow="2"
     inkscape:pageopacity="0.0"
     inkscape:pagecheckerboard="0"
     inkscape:deskcolor="#d1d1d1"
     showgrid="false"
     inkscape:zoom="1.2608062"
     inkscape:cx="447.72941"
     inkscape:cy="357.31107"
     inkscape:window-width="2560"
     inkscape:window-height="1279"
     inkscape:window-x="0"
     inkscape:window-y="40"
     inkscape:window-maximized="1"
     inkscape:current-layer="g324" />
  <g
     inkscape:groupmode="layer"
     inkscape:label="Image"
     id="g324"
     transform="translate(-28.983231,-83.214997)">
    <path
       id="path402"
       style="fill:#000000;stroke-width:1.33333"
       d="m 251.57812,145.92188 -0.35351,36.99023 -0.35547,36.99023 -5.33203,2.56641 c -2.93334,1.41153 -20.33469,9.54965 -38.66797,18.08594 l -33.33203,15.52148 -0.35352,38.87891 -0.35351,38.8789 3.01953,1.96875 c 1.66104,1.08332 15.92089,7.92919 31.6875,15.21094 15.76661,7.28175 32.1264,14.88884 36.35547,16.90625 l 7.68945,3.66797 -0.35547,33.45313 -0.35742,33.45312 -6.93555,3.46484 c -3.81476,1.90573 -13.98766,6.72801 -22.60742,10.71485 -49.42572,22.86043 -47.78906,21.99065 -47.78906,25.38672 0,6.42698 8.01068,4.11294 43.73828,-12.63477 18.18985,-8.5267 33.33927,-15.5039 33.66602,-15.5039 0.32673,0 0.5957,15.25616 0.5957,33.90234 0,31.16802 0.18687,33.95073 2.33203,34.50781 1.28333,0.33321 3.13273,0.37707 4.10938,0.0977 0.97661,-0.27951 2.32664,-0.50781 3,-0.50781 0.71145,-10e-6 1.2246,-14.24126 1.2246,-34 0,-18.69997 0.22462,-34 0.5,-34 0.97672,-10e-6 17.79177,7.67772 54.24805,24.77148 8.47825,3.97533 16.65446,7.22852 18.16797,7.22852 2.96252,0 4.15927,-0.52693 58.7793,-25.84571 10.46619,-4.85151 19.39046,-8.82031 19.83008,-8.82031 0.79747,0 33.55797,14.9897 60.91015,27.86914 7.93992,3.73872 15.85453,6.79688 17.58789,6.79688 1.73336,0 8.13714,-2.34146 14.23047,-5.20313 46.49613,-21.83634 63.0547,-29.46289 63.96289,-29.46289 1.04663,0 7.04885,2.68574 29.7832,13.33203 40.35156,18.89625 45.93356,21.33399 48.86719,21.33399 2.42637,0 14.83671,-5.44969 48.4668,-21.28516 7.33331,-3.45307 17.08314,-7.95956 21.66797,-10.01367 l 8.33594,-3.73438 23.66406,11.04688 c 13.01514,6.07579 29.96409,14.00513 37.66406,17.62109 10.20293,4.79135 15.08487,6.40276 18,5.93945 2.2,-0.34964 18.40006,-7.35803 36,-15.57226 17.59994,-8.21425 34.13683,-15.82054 36.74805,-16.9043 4.70356,-1.95217 4.92658,-1.88808 24,6.95313 10.58875,4.90824 23.15325,10.73197 27.91992,12.9414 15.06294,6.98196 25.56198,11.67383 26.12305,11.67383 0.29831,0 0.54296,-2.27912 0.54296,-5.06641 v -5.06836 l -18.33398,-8.50195 c -49.87198,-23.12912 -55.31156,-25.44356 -57.89062,-24.625 -1.45143,0.46067 -19.14186,8.52781 -39.3125,17.92774 l -36.67383,17.09179 -6.22852,-2.74609 c -3.42538,-1.50959 -20.84816,-9.55343 -38.71875,-17.87695 -17.8706,-8.32354 -33.07401,-15.13477 -33.78515,-15.13477 -0.71117,0 -18.64741,8.08829 -39.85743,17.97266 l -38.56445,17.9707 -35.98437,-16.8125 -35.98438,-16.8125 V 403.17188 367.4375 l -3.87109,-2.75781 c -2.12987,-1.5166 -4.20876,-2.75782 -4.61914,-2.75781 -0.41036,0 -7.5185,-3.19405 -15.79493,-7.09766 -8.27638,-3.90363 -23.8982,-11.20266 -34.71484,-16.2207 l -19.66602,-9.125 v -35.00196 c 10e-6,-19.25158 -0.36346,-35.95331 -0.80859,-37.11328 -0.82132,-2.14032 -5.24267,-2.77214 -9.08203,-1.29883 -1.85168,0.71054 -2.10938,5.23602 -2.10938,37.08789 v 36.2793 l -10.33398,4.82813 c -5.6833,2.65538 -15.73206,7.32425 -22.33203,10.375 -6.59997,3.05071 -15.90131,7.36849 -20.66797,9.59375 -20.76125,9.69214 -18.14203,9.11271 -25.82422,5.70898 -3.76327,-1.66739 -12.54117,-5.71533 -19.50781,-8.99414 -6.96663,-3.27881 -19.56669,-9.13944 -28,-13.02344 -17.54105,-8.07861 -18.65325,-8.78822 -18.41797,-11.79492 0.0948,-1.2113 0.0792,-17.39248 -0.0371,-35.95703 l -0.21289,-33.75391 -16.33203,-7.64844 c -8.98331,-4.20709 -26.67285,-12.41782 -39.30859,-18.24609 l -22.97461,-10.59765 -0.0254,-37 -0.0254,-37 h -5.3125 z m 211.48829,35.8789 c -4.80834,-7.5e-4 -9.77579,1.04866 -13.5293,3.14844 -6.66819,3.73031 -11.33398,12.36329 -11.33399,20.97266 10e-6,8.56264 4.66372,17.22206 11.33399,21.04687 6.99292,4.0098 21.19718,3.72236 26.95703,-0.54492 14.69541,-10.88732 14.2755,-31.27527 -0.85352,-41.47071 -3.11751,-2.10073 -7.76589,-3.15158 -12.57421,-3.15234 z m 31.13671,0.1211 v 24 24 h 3.27735 c 3.16536,0 3.28987,-0.35346 3.66601,-10.33399 l 0.39063,-10.33203 h 12 12 l 0.38867,10.33203 c 0.37614,9.98053 0.50066,10.33399 3.66602,10.33399 h 3.27734 v -24 -24 h -3.27344 c -3.14047,0 -3.29231,0.39612 -3.66797,9.66601 l -0.39062,9.66797 -10.46094,0.39062 c -6.56405,0.24581 -11.15623,-0.18632 -12.33203,-1.1621 -1.25085,-1.03812 -1.875,-4.38158 -1.875,-10.0586 0,-8.18139 -0.12492,-8.5039 -3.33203,-8.5039 z m -30.99804,6.49414 c 4.08657,0.12176 8.17623,1.33593 10.87109,3.60351 8.67497,7.29949 8.48961,21.10584 -0.375,27.86719 -3.36761,2.56863 -6.00642,3.36914 -11.11133,3.36914 -17.40218,0 -24.12838,-20.95379 -10.23437,-31.88281 2.67918,-2.10745 6.76301,-3.0788 10.84961,-2.95703 z m -206.19922,40.17187 c 0.49973,0 17.17364,7.59156 37.05273,16.86914 l 36.14453,16.86719 v 33.10937 33.10938 l -6.33398,3.20703 c -3.48333,1.76356 -18.33336,8.74747 -33,15.51953 -14.66661,6.77208 -28.46602,13.05405 -30.66602,13.96094 -3.7855,1.5605 -5.91438,0.75069 -39.68945,-15.10938 l -35.6875,-16.75781 0.35547,-33.94726 0.35547,-33.94727 35.2793,-16.44141 c 19.40439,-9.04188 35.68973,-16.43945 36.18945,-16.43945 z m -0.58203,12.90234 c -0.94609,-0.0586 -1.61761,0.10888 -2.22071,0.43165 -1.74521,0.934 -2.66958,2.5387 -2.41406,4.1875 0.31748,2.04874 6.95418,5.74863 28.41406,15.84179 15.39997,7.24299 28.78903,13.19923 29.75391,13.23633 2.91242,0.11206 6.91211,-2.56635 6.91211,-4.62891 0,-2.12712 -7.46529,-6.0658 -38.91797,-20.53125 -13.37586,-6.15167 -18.68907,-8.36121 -21.52734,-8.53711 z m 78.95508,96.10352 35.74609,16.63086 35.74414,16.62891 0.35547,33.97656 0.35547,33.97656 -3.02149,1.42578 c -1.66211,0.78434 -16.22217,7.55885 -32.35547,15.05274 -16.13327,7.49388 -31.13398,14.37908 -33.33398,15.30078 -3.7738,1.58102 -5.47038,0.98561 -30,-10.53516 -14.29997,-6.71623 -30.64953,-14.29413 -36.33203,-16.83789 l -10.33203,-4.625 -0.002,-33.47851 v -33.47852 l 36.5879,-17.01758 z m 156.99609,0.14648 35.91406,16.70118 35.91406,16.70312 0.35547,33.79102 0.35547,33.79297 -27.02148,12.44726 c -14.86205,6.84698 -31.26752,14.40366 -36.45508,16.79102 l -9.43164,4.33984 -29.23438,-13.61523 c -16.07901,-7.48868 -32.3957,-15.03661 -36.25781,-16.77344 l -7.02148,-3.1582 0.35547,-33.83985 0.35546,-33.83789 30.66602,-14.27539 c 16.8666,-7.85137 33.10529,-15.35434 36.08594,-16.67187 z m -1.2207,13.08789 c -0.9557,-0.0756 -1.6266,0.0743 -2.20313,0.38282 -1.51172,0.80906 -2.74805,2.57363 -2.74805,3.91992 0,2.51815 1.28082,3.2013 40,21.38086 17.34433,8.14356 21.05268,9.15631 23.73243,6.47656 4.2097,-4.2097 2.37063,-5.37445 -37.31641,-23.62695 -13.16302,-6.05383 -18.59777,-8.30654 -21.46484,-8.53321 z m -53.24024,24.53711 c -4.70887,-0.42306 -5.04492,4.13362 -5.04492,29.83008 0,14.82129 0.42949,27.37674 0.95313,27.90039 0.52364,0.52365 2.77364,0.77473 5,0.55664 l 4.04687,-0.39648 0.36133,-28.30274 0.35937,-28.30078 -3.37695,-0.84765 c -0.86296,-0.21659 -1.62613,-0.37902 -2.29883,-0.43946 z m 109.88086,50.4961 c -3.9396,-0.12308 -12.28564,3.39995 -30.44922,11.83789 -32.44812,15.07386 -31.14257,14.3398 -31.14258,17.52344 0,1.36225 0.74936,2.77855 1.66602,3.14843 3.54078,1.42873 6.35209,0.70234 17.81445,-4.60547 6.51922,-3.01878 15.75289,-7.29507 20.51953,-9.5039 4.76666,-2.20882 12.45845,-5.7337 17.09376,-7.83203 6.97438,-3.15723 8.35401,-4.31 8,-6.6836 -0.36176,-2.42531 -1.13819,-3.81092 -3.50196,-3.88476 z m 452.53908,20.85156 c -7.52743,0.50972 -14.91983,3.90312 -19.78908,10.01563 -5.07808,6.37469 -6.37635,17.22841 -3.08984,25.83398 2.41962,6.33557 10.9582,14.80219 15.9043,15.77148 5.41827,1.06182 12.19872,0.90111 16.89062,-0.40234 5.308,-1.47462 15.4053,-10.99302 14.0273,-13.22266 -1.5402,-2.49214 -6.6042,-1.55288 -9.8007,1.81836 -7.2162,7.61057 -18.67779,7.3212 -26.32816,-0.66406 -3.6041,-3.76179 -3.94531,-4.92379 -3.94532,-13.46484 10e-6,-9.09234 0.1364,-9.47285 4.98047,-13.91211 4.3938,-4.0266 5.83383,-4.56446 12.23051,-4.56445 5.7887,0 8.0501,0.67272 11.2129,3.33398 7.2573,6.10685 14.7456,3.16747 8.3144,-3.26367 -5.416,-5.41604 -13.08,-7.78902 -20.6074,-7.2793 z m 39.2031,0.35742 v 25.42578 25.42579 h 3.2793 c 3.1874,0 3.2896,-0.30882 3.666,-11 l 0.3867,-11 11.8887,-0.38868 c 8.6106,-0.28138 12.1872,0.0868 12.9785,1.33399 0.6007,0.94699 1.1023,6.072 1.1133,11.38867 0.02,9.41674 0.1063,9.66601 3.3535,9.66602 h 3.334 v -25.42579 -25.42578 l -3,0.42578 c -2.7375,0.38877 -3.0364,1.23982 -3.4023,9.72266 -0.2311,5.35745 -1.0785,9.72673 -2,10.3125 -2.0797,1.322 -21.1176,1.322 -23.1973,0 -0.9215,-0.58577 -1.7689,-4.95505 -2,-10.3125 -0.3659,-8.48284 -0.663,-9.33389 -3.4004,-9.72266 z M 53.666016,462.71289 c -7.527389,0.50972 -14.917886,3.90312 -19.78711,10.01563 -5.078101,6.37469 -6.376341,17.22841 -3.089844,25.83398 2.41958,6.33557 10.956208,14.80219 15.902344,15.77148 5.418265,1.06182 12.200722,0.90111 16.892578,-0.40234 5.307967,-1.47462 15.405336,-10.99302 14.027344,-13.22266 -1.540238,-2.49214 -6.604234,-1.55288 -9.800781,1.81836 -7.216152,7.61057 -18.679705,7.3212 -26.330078,-0.66406 -3.604031,-3.76179 -3.94336,-4.92379 -3.94336,-13.46484 0,-9.09234 0.136376,-9.47285 4.980469,-13.91211 4.393774,-4.0266 5.833907,-4.56446 12.230469,-4.56445 5.788695,0 8.048229,0.67272 11.210937,3.33398 7.25759,6.10685 14.745607,3.16747 8.314454,-3.26367 -5.416035,-5.41604 -13.080036,-7.78902 -20.607422,-7.2793 z m 39.203125,0.35742 v 25.42578 25.42579 h 3.279297 c 3.187358,-10e-6 3.291581,-0.30882 3.667968,-11 l 0.386714,-11 11.88672,-0.38868 c 8.61058,-0.28138 12.18923,0.0868 12.98047,1.33399 0.60079,0.94699 1.10208,6.072 1.11328,11.38867 0.0199,9.41674 0.10636,9.66601 3.35352,9.66602 h 3.33203 v -25.42579 -25.42578 l -3,0.42578 c -2.73744,0.38877 -3.03447,1.23982 -3.40039,9.72266 -0.2311,5.35745 -1.07851,9.72673 -2,10.3125 -2.07966,1.322 -21.1176,1.322 -23.19727,0 -0.92145,-0.58577 -1.768896,-4.95505 -1.999996,-10.3125 -0.365907,-8.48284 -0.664902,-9.33389 -3.402343,-9.72266 z m 1009.708959,5.77735 c -6.6978,-0.48689 -11.041,1.52762 -11.041,5.12109 0,3.1472 1.7097,3.37879 4.0567,0.55078 1.0445,-1.2589 3.3241,-1.91036 5.8281,-1.66601 3.133,0.30575 4.2186,1.13495 4.5508,3.47851 0.3399,2.39737 -0.4695,3.41843 -3.6661,4.625 -5.1633,1.94892 -5.1923,3.0799 -0.1035,4.09766 3.0681,0.61362 4,1.52261 4,3.90039 0,6.38487 -5.3237,8.12191 -11.0605,3.60937 -4.9011,-3.85517 -6.5232,-0.53289 -1.7461,3.57617 6.9714,5.99653 18.0611,2.45169 18.1191,-5.79101 0.011,-1.59763 -0.9041,-3.82998 -2.0351,-4.96094 -1.8528,-1.8528 -1.8436,-2.3828 0.1054,-5.35742 1.8633,-2.84365 1.9171,-3.8195 0.3809,-7.03906 -1.4739,-3.08892 -2.756,-3.80776 -7.3887,-4.14453 z m -946.66794,16 c -6.69776,-0.48689 -11.04102,1.52762 -11.04102,5.12109 0,3.1472 1.70963,3.37879 4.05664,0.55078 1.04479,-1.2589 3.32604,-1.91036 5.83008,-1.66601 3.13304,0.30575 4.21858,1.13495 4.55078,3.47851 0.33982,2.39737 -0.47137,3.41843 -3.66797,4.625 -5.1632,1.94892 -5.19036,3.0799 -0.10156,4.09766 3.06811,0.61362 4,1.52261 4,3.90039 0,6.38487 -5.32378,8.12191 -11.06055,3.60937 -4.90105,-3.85517 -6.5232,-0.53289 -1.74609,3.57617 6.97137,5.99653 18.06114,2.45169 18.11914,-5.79101 0.0112,-1.59763 -0.90422,-3.82998 -2.03516,-4.96094 -1.85282,-1.8528 -1.84357,-2.3828 0.10547,-5.35742 1.86322,-2.84365 1.91707,-3.8195 0.38086,-7.03906 -1.47386,-3.08892 -2.75794,-3.80776 -7.39062,-4.14453 z m 179.15625,10.28711 c -4.80834,-7.6e-4 -9.77579,1.04868 -13.5293,3.14843 -6.6682,3.73031 -11.33399,12.36331 -11.33399,20.97266 10e-6,8.56263 4.66371,17.22208 11.33399,21.04687 6.99291,4.0098 21.19718,3.72239 26.95703,-0.54492 14.69541,-10.88731 14.2755,-31.27526 -0.85352,-41.4707 -3.11751,-2.10076 -7.7659,-3.15159 -12.57421,-3.15234 z m 0.13867,6.61328 c 4.08657,0.12176 8.17623,1.33789 10.87109,3.60547 8.67496,7.29949 8.48961,21.10582 -0.375,27.86718 -3.36761,2.56862 -6.00643,3.36719 -11.11133,3.36719 -17.40218,0 -24.12838,-20.95183 -10.23437,-31.88086 2.67918,-2.10744 6.76301,-3.08075 10.84961,-2.95898 z m -153.53906,38.29883 c -7.52741,0.50969 -14.9179,3.90116 -19.78711,10.01367 -5.07811,6.37469 -6.37633,17.23036 -3.08985,25.83593 2.41958,6.3356 10.95621,14.80217 15.90235,15.77149 5.41825,1.06182 12.20072,0.89915 16.89257,-0.4043 5.30797,-1.47462 15.40533,-10.99106 14.02735,-13.2207 -1.54024,-2.49217 -6.60426,-1.55291 -9.80078,1.81836 -7.21617,7.61054 -18.67971,7.3212 -26.33008,-0.66406 -3.60404,-3.76182 -3.94336,-4.9238 -3.94336,-13.46485 0,-9.09234 0.13637,-9.4748 4.98047,-13.91406 4.39377,-4.0266 5.83389,-4.5625 12.23047,-4.5625 5.78869,0 8.04824,0.67077 11.21093,3.33203 7.25761,6.10685 14.74561,3.16945 8.31446,-3.26172 -5.41604,-5.41602 -13.08004,-7.78901 -20.60742,-7.27929 z m 39.20312,0.35546 v 25.42578 25.42774 h 3.2793 c 3.18733,0 3.29159,-0.30879 3.66797,-11 l 0.38671,-11 11.88672,-0.38867 c 8.61059,-0.28138 12.18922,0.0848 12.98047,1.33203 0.60079,0.94699 1.10258,6.07203 1.11328,11.38867 0.0199,9.41674 0.10636,9.66797 3.35352,9.66797 h 3.33203 v -25.42774 -25.42578 l -3,0.42578 c -2.73745,0.38877 -3.03447,1.23983 -3.40039,9.72266 -0.2311,5.35748 -1.07852,9.72868 -2,10.31445 -2.07967,1.322 -21.11761,1.322 -23.19727,0 -0.92145,-0.58577 -1.76891,-4.95697 -2,-10.31445 -0.36592,-8.48283 -0.66488,-9.33389 -3.40234,-9.72266 z m 63.04102,21.7793 c -6.69776,-0.48689 -11.04102,1.52765 -11.04102,5.12109 0,3.1472 1.70963,3.37877 4.05664,0.55079 1.04479,-1.2589 3.32604,-1.91037 5.83008,-1.66602 3.13304,0.30575 4.21858,1.13496 4.55078,3.47852 0.33983,2.39734 -0.47137,3.41843 -3.66797,4.625 -5.1632,1.94889 -5.19036,3.07989 -0.10156,4.09765 3.0681,0.61362 4,1.52261 4,3.90039 0,6.3849 -5.32377,8.12189 -11.06055,3.60938 -4.90105,-3.8552 -6.52319,-0.53487 -1.74609,3.57422 6.97137,5.9965 18.06114,2.45366 18.11914,-5.78907 0.0112,-1.5976 -0.90421,-3.82997 -2.03516,-4.96093 -1.85281,-1.8528 -1.84357,-2.38281 0.10547,-5.35743 1.86323,-2.84362 1.91708,-3.81947 0.38086,-7.03906 -1.47385,-3.08892 -2.75795,-3.80776 -7.39062,-4.14453 z" />
    <path
       id="text463"
       style="font-size:71.7245px;fill:#000000;stroke-width:5.97704"
       d="m 224.58984,83.215 c -8.23511,0 -14.72002,2.334445 -19.45703,7.001952 -4.73701,4.645065 -7.10547,11.005608 -7.10547,19.083978 0,8.05594 2.36846,14.41844 7.10547,19.08594 4.73701,4.64507 11.22192,6.9668 19.45703,6.9668 3.2066,0 6.24288,-0.40311 9.10938,-1.21094 2.8908,-0.80784 5.62422,-2.01909 8.19922,-3.63476 v -7.10352 c -2.47783,2.13179 -5.12545,3.72657 -7.94336,4.78125 -2.79363,1.05468 -5.76973,1.58203 -8.92773,1.58203 -6.21886,0 -10.97945,-1.75132 -14.28321,-5.25196 -3.30376,-3.52306 -4.95703,-8.59505 -4.95703,-15.21484 0,-6.64222 1.65327,-11.712256 4.95703,-15.21289 3.30376,-3.523068 8.06435,-5.285149 14.28321,-5.285149 3.158,0 6.1341,0.527355 8.92773,1.582026 2.81791,1.054681 5.46553,2.6475 7.94336,4.779294 v -7.169917 c -2.52641,-1.593232 -5.23421,-2.781009 -8.125,-3.566404 -2.8665,-0.807837 -5.92841,-1.21289 -9.1836,-1.21289 z m 28.67773,0.908197 v 50.255863 h 7.36134 V 110.44547 H 287.375 v 23.93359 h 7.35937 V 84.123197 H 287.375 V 104.72476 H 260.62891 V 84.123197 Z" />
    <text
       xml:space="preserve"
       style="font-size:34.3087px;fill:#000000;stroke-width:2.85906"
       x="261.31024"
       y="155.87093"
       id="text529"
       transform="scale(1.1622771,0.86038004)"><tspan
         sodipodi:role="line"
         id="tspan527"
         x="261.31024"
         y="155.87093"
         style="font-style:normal;font-variant:normal;font-weight:normal;font-stretch:normal;font-size:34.3087px;font-family:'Noto Looped Lao';-inkscape-font-specification:'Noto Looped Lao, Normal';font-variant-ligatures:normal;font-variant-caps:normal;font-variant-numeric:normal;font-variant-east-asian:normal;stroke-width:2.85906">3</tspan><tspan
         sodipodi:role="line"
         x="261.31024"
         y="198.75681"
         id="tspan531"
         style="font-style:normal;font-variant:normal;font-weight:normal;font-stretch:normal;font-size:34.3087px;font-family:'Noto Looped Lao';-inkscape-font-specification:'Noto Looped Lao, Normal';font-variant-ligatures:normal;font-variant-caps:normal;font-variant-numeric:normal;font-variant-east-asian:normal;stroke-width:2.85906" /></text>
  </g>
</svg>
