<?xml version="1.0" encoding="UTF-8" standalone="no"?>
<!-- Created with Inkscape (http://www.inkscape.org/) -->

<svg
   version="1.1"
   id="svg318"
   width="1082.5328"
   height="509.82568"
   viewBox="0 0 1082.5329 509.82568"
   sodipodi:docname="thc-molecule.png"
   inkscape:version="1.2.1 (9c6d41e410, 2022-07-14)"
   inkscape:dataloss="true"
   xmlns:inkscape="http://www.inkscape.org/namespaces/inkscape"
   xmlns:sodipodi="http://sodipodi.sourceforge.net/DTD/sodipodi-0.dtd"
   xmlns="http://www.w3.org/2000/svg"
   xmlns:svg="http://www.w3.org/2000/svg">
  <defs
     id="defs322" />
  <sodipodi:namedview
     id="namedview320"
     pagecolor="#ffffff"
     bordercolor="#000000"
     borderopacity="0.25"
     inkscape:showpageshadow="2"
     inkscape:pageopacity="0.0"
     inkscape:pagecheckerboard="0"
     inkscape:deskcolor="#d1d1d1"
     showgrid="false"
     inkscape:zoom="1.2608062"
     inkscape:cx="447.72941"
     inkscape:cy="357.31107"
     inkscape:window-width="2560"
     inkscape:window-height="1279"
     inkscape:window-x="0"
     inkscape:window-y="40"
     inkscape:window-maximized="1"
     inkscape:current-layer="g324" />
  <g
     inkscape:groupmode="layer"
     inkscape:label="Image"
     id="g324"
     transform="translate(-28.983401,-82.646355)">
    <path
       style="fill:#000000;stroke-width:1.33333"
       d="m 174.69187,591.66776 c -4.94614,-0.96932 -13.48304,-9.43571 -15.90262,-15.77131 -3.28651,-8.6056 -1.9883,-19.46047 3.08981,-25.83519 9.73848,-12.22502 29.56284,-13.56742 40.39493,-2.73533 6.43118,6.43117 -1.05645,9.36931 -8.31406,3.26243 -3.16272,-2.66126 -5.42334,-3.33334 -11.21206,-3.33334 -6.39658,0 -7.83724,0.53762 -12.23104,4.56422 -4.8441,4.43929 -4.98041,4.82008 -4.98041,13.91245 0,8.54108 0.34059,9.70373 3.94463,13.46555 7.6504,7.98529 19.11329,8.27421 26.32946,0.66364 3.19655,-3.37127 8.26006,-4.311 9.8003,-1.81883 1.37798,2.22964 -8.71978,11.74741 -14.02775,13.22203 -4.69188,1.30345 -11.47291,1.4655 -16.89119,0.40368 z m 100.03857,-2.19435 c -4.7771,-4.10909 -3.15544,-7.43039 1.74564,-3.57519 5.73678,4.51254 11.06034,2.77504 11.06034,-3.60986 0,-2.37778 -0.9319,-3.28638 -4,-3.9 -5.0888,-1.01776 -5.06043,-2.14843 0.1028,-4.09735 3.1966,-1.20657 4.00649,-2.22828 3.66666,-4.62565 -0.3322,-2.34356 -1.41668,-3.17268 -4.54972,-3.47843 -2.50404,-0.24435 -4.78514,0.40777 -5.82993,1.66667 -2.34701,2.82801 -4.05648,2.59553 -4.05648,-0.55167 0,-3.59347 4.34323,-5.60797 11.04099,-5.12108 4.6327,0.33677 5.91533,1.05629 7.38918,4.14521 1.53622,3.21959 1.48359,4.19531 -0.37964,7.03896 -1.94904,2.97462 -1.95961,3.50474 -0.1068,5.35754 1.13095,1.13096 2.04708,3.36341 2.03586,4.96104 -0.058,8.24273 -11.1475,11.78634 -18.1189,5.78981 z m -53.86069,-23.64445 v -25.42607 l 3,0.42607 c 2.73746,0.38877 3.0351,1.23967 3.40102,9.72253 0.23109,5.35748 1.07852,9.72715 2,10.31292 2.07966,1.322 21.1183,1.322 23.19797,0 0.92148,-0.58577 1.7689,-4.95544 2,-10.31292 0.36592,-8.48286 0.66356,-9.33376 3.40101,-9.72253 l 3,-0.42607 v 25.42607 25.42606 h -3.33333 c -3.24716,0 -3.33387,-0.24989 -3.35375,-9.66666 -0.0107,-5.31667 -0.51197,-10.44148 -1.11276,-11.38847 -0.79125,-1.24719 -4.369,-1.61471 -12.97959,-1.33333 l -11.88723,0.38846 -0.38726,11 c -0.37638,10.69124 -0.4793,11 -3.66666,11 h -3.27942 z m 100.66667,-25.52673 c -6.67031,-3.82482 -11.33334,-12.48454 -11.33334,-21.0472 0,-8.60938 4.66511,-17.24227 11.33334,-20.97258 7.50702,-4.19956 19.86934,-4.19752 26.10442,0.004 15.12905,10.19547 15.54839,30.58382 0.85295,41.47116 -5.75988,4.26731 -19.96443,4.55411 -26.95737,0.54431 z m 24.16445,-7.08224 c 8.86464,-6.76139 9.05082,-20.56718 0.37583,-27.8667 -5.38972,-4.53516 -16.36208,-4.86209 -21.72044,-0.6472 -13.89404,10.92906 -7.16812,31.88227 10.23412,31.88227 5.1049,0 7.74285,-0.79975 11.11049,-3.36837 z m -91.83112,-14.88788 c -2.14516,-0.55708 -2.33333,-3.34007 -2.33333,-34.50818 0,-18.64624 -0.26734,-33.90224 -0.59407,-33.90224 -0.32675,0 -15.47675,6.97642 -33.66666,15.50315 -35.72772,16.74777 -43.73927,19.06209 -43.73927,12.63508 0,-3.39607 -1.63687,-2.52652 47.789,-25.38701 8.61979,-3.98684 18.79354,-8.80803 22.60833,-10.71376 l 6.936,-3.46496 0.35588,-33.45281 0.35588,-33.45282 -7.68921,-3.66804 c -4.22907,-2.01741 -20.58921,-9.62585 -36.35588,-16.90763 -15.76667,-7.28178 -30.02569,-14.12596 -31.68673,-15.20928 l -3.02007,-1.96968 0.3534,-38.879 0.3534,-38.879 33.33333,-15.52056 c 18.33334,-8.53632 35.73333,-16.67547 38.66667,-18.087 l 5.33333,-2.56641 0.35443,-36.99012 0.35442,-36.99013 h 5.31224 5.31224 l 0.0259,36.99999 0.0259,37 22.97417,10.59687 c 12.6358,5.82827 30.32417,14.03904 39.30751,18.24616 l 16.33333,7.64929 0.21125,33.75384 c 0.11627,18.56461 0.13371,34.74491 0.0389,35.95621 -0.23528,3.0067 0.87536,3.71812 18.41647,11.79676 8.43334,3.884 21.03334,9.7445 28,13.02331 6.96667,3.27881 15.74572,7.3257 19.50902,8.99309 7.68222,3.40373 5.06301,3.98281 25.82432,-5.70936 4.76666,-2.22526 14.06666,-6.542 20.66666,-9.59274 6.6,-3.05075 16.65,-7.71943 22.33333,-10.37484 l 10.33334,-4.82804 v -36.27928 c 0,-31.85199 0.25737,-36.37807 2.10905,-37.08861 3.83936,-1.47331 8.26031,-0.84059 9.08163,1.29973 0.44513,1.15997 0.80932,17.8604 0.80932,37.11204 v 35.003 l 19.66666,9.12374 c 10.81667,5.01807 26.4383,12.31766 34.71471,16.22129 8.27643,3.90364 15.38381,7.09754 15.79417,7.09754 0.41038,0 2.48876,1.24085 4.61863,2.75745 l 3.87249,2.75747 v 35.73458 35.73458 l 35.98425,16.81293 35.98426,16.81292 38.56393,-17.97163 c 21.21008,-9.8844 39.14572,-17.97164 39.85689,-17.97164 0.71117,0 15.91449,6.81018 33.78515,15.13372 17.87065,8.32355 35.29472,16.36885 38.72013,17.87844 l 6.22801,2.74472 36.67397,-17.09081 c 20.1707,-9.39996 37.86151,-17.46773 39.31294,-17.9284 2.57909,-0.81856 8.01825,1.49504 57.89038,24.62425 l 18.33333,8.50245 v 5.06782 c 0,2.78729 -0.24406,5.06781 -0.54237,5.06781 -0.56107,0 -11.06129,-4.69225 -26.12429,-11.67421 -4.76667,-2.20943 -17.33021,-8.033 -27.91899,-12.94127 -19.07348,-8.84124 -19.29641,-8.90582 -24,-6.95365 -2.61122,1.08376 -19.14768,8.69124 -36.74768,16.90552 -17.6,8.21426 -33.8,15.2211 -36,15.57074 -2.91513,0.46331 -7.79703,-1.14738 -17.99999,-5.93873 -7.7,-3.61596 -24.64878,-11.54559 -37.66395,-17.62141 l -23.66395,-11.04693 -8.33605,3.73479 c -4.58483,2.05414 -14.33605,6.56003 -21.66939,10.0131 -33.63018,15.83553 -46.03918,21.28538 -48.46555,21.28538 -2.93366,0 -8.5161,-2.43702 -48.86778,-21.33333 -22.73444,-10.64632 -28.73651,-13.33333 -29.78314,-13.33333 -0.90819,0 -17.46608,7.62722 -63.96236,29.46362 -6.09336,2.86167 -12.49704,5.20304 -14.2304,5.20304 -1.73336,0 -9.64788,-3.05894 -17.58783,-6.79766 -27.35227,-12.87947 -60.11385,-27.869 -60.91135,-27.869 -0.43962,0 -9.36256,3.96944 -19.82878,8.82098 -54.62018,25.31884 -55.81835,25.84568 -58.78087,25.84568 -1.51351,0 -9.6886,-3.25253 -18.16688,-7.22786 -36.4564,-17.09382 -53.2709,-24.77214 -54.24762,-24.77214 -0.27541,0 -0.50076,15.3 -0.50076,34 0,19.7588 -0.5128,34 -1.22428,34 -0.67336,0 -2.02336,0.22868 -3,0.50819 -0.97665,0.27949 -2.82572,0.23551 -4.10905,-0.0977 z m 118.33333,-63.04779 c 16.13333,-7.49389 30.69325,-14.267 32.35539,-15.05134 l 3.02205,-1.42608 -0.35539,-33.97666 -0.35538,-33.97665 -35.74539,-16.62971 -35.74538,-16.6297 -36.58795,17.01874 -36.58795,17.01875 10e-4,33.47835 0.001,33.47834 10.33188,4.62504 c 5.68253,2.54376 22.03188,10.12015 36.33188,16.83641 24.52968,11.5208 26.2262,12.1166 30,10.53558 2.2,-0.9217 17.2,-7.80716 33.33333,-15.30107 z m 165.68864,-4.10764 27.02197,-12.44912 -0.35531,-33.79142 -0.3553,-33.79142 -35.91396,-16.7025 -35.91395,-16.70249 -5.41939,2.39557 c -2.98065,1.31756 -19.21937,8.81944 -36.08603,16.67084 l -30.66667,14.27526 -0.35535,33.83919 -0.35533,33.8392 7.022,3.15788 c 3.86211,1.73683 20.17763,9.28498 36.2567,16.77366 l 29.23471,13.61579 9.43196,-4.34067 c 5.18759,-2.38736 21.59187,-9.94276 36.45395,-16.78977 z m -50.02198,7.19531 c -0.91666,-0.36988 -1.66666,-1.78711 -1.66666,-3.14939 0,-3.18364 -1.30506,-2.44932 31.14318,-17.52324 29.06182,-13.50074 32.98662,-14.42006 33.95131,-7.95249 0.35404,2.3736 -1.02559,3.52617 -8,6.6834 -4.63531,2.09833 -12.32783,5.62239 -17.09449,7.83121 -4.76667,2.20883 -14.00058,6.48599 -20.5198,9.5048 -11.46242,5.30781 -14.27276,6.03444 -17.81354,4.60571 z M 433.82183,433.096 c -0.52364,-0.52365 -0.95208,-13.07861 -0.95208,-27.89993 0,-29.36748 0.43878,-31.12393 7.34244,-29.39123 l 3.37708,0.84759 -0.35976,28.30131 -0.35976,28.30129 -4.04792,0.39652 c -2.22636,0.21809 -4.47636,-0.0319 -5,-0.55555 z m 92.38125,-56.5836 c -38.7193,-18.17962 -40,-18.86425 -40,-21.3824 0,-1.34629 1.23685,-3.10975 2.74857,-3.91881 2.30612,-1.23418 6.11593,0.0777 23.66667,8.14948 39.68716,18.25256 41.52782,19.41796 37.31809,23.62769 -2.67975,2.67975 -6.38897,1.66763 -23.73333,-6.47596 z M 290.86975,347.26931 c 14.66667,-6.77209 29.51667,-13.75582 33,-15.51938 l 6.33333,-3.20648 v -33.10914 -33.10914 l -36.1439,-16.8684 c -19.87915,-9.27761 -36.55278,-16.8684 -37.05251,-16.8684 -0.49972,0 -16.78497,7.39792 -36.18942,16.43983 l -35.28083,16.43983 -0.35528,33.94738 -0.35528,33.94737 35.68861,16.75863 c 33.77516,15.8601 35.90308,16.67021 39.68861,15.10971 2.2,-0.90689 16,-7.1897 30.66667,-13.96181 z m -10.66667,-85.31842 c -21.45997,-10.09319 -28.09676,-13.79351 -28.41424,-15.84228 -0.25552,-1.6488 0.67,-3.25341 2.41524,-4.18744 2.41239,-1.29107 5.91303,-0.0961 23.74758,8.10617 31.45277,14.46548 38.91809,18.40373 38.91809,20.53088 0,2.06256 -3.99993,4.74137 -6.91235,4.62931 -0.96488,-0.0371 -14.35432,-5.99362 -29.75432,-13.23664 z M 46.691881,514.33443 c -4.946151,-0.96932 -13.483044,-9.43571 -15.90263,-15.77131 -3.286509,-8.6056 -1.988298,-19.46047 3.089818,-25.83519 9.738478,-12.22502 29.562829,-13.56742 40.394928,-2.73533 6.431174,6.43117 -1.056456,9.36931 -8.314067,3.26243 -3.16272,-2.66126 -5.423341,-3.33334 -11.212054,-3.33334 -6.39658,0 -7.837247,0.53762 -12.231033,4.56422 -4.844108,4.43929 -4.98042,4.82008 -4.98042,13.91245 0,8.54108 0.340592,9.70373 3.944632,13.46555 7.650397,7.98529 19.113285,8.27421 26.329458,0.66364 3.196556,-3.37127 8.260049,-4.311 9.800293,-1.81883 1.377995,2.22964 -8.719767,11.74741 -14.027749,13.22203 -4.691871,1.30345 -11.472896,1.4655 -16.891176,0.40368 z m 100.038569,-2.19435 c -4.77711,-4.10909 -3.15544,-7.43039 1.74564,-3.57519 5.73677,4.51254 11.06033,2.77504 11.06033,-3.60986 0,-2.37778 -0.93189,-3.28638 -4,-3.9 -5.0888,-1.01776 -5.06043,-2.14843 0.1028,-4.09735 3.1966,-1.20657 4.00649,-2.22828 3.66667,-4.62565 -0.3322,-2.34356 -1.41668,-3.17268 -4.54972,-3.47843 -2.50404,-0.24435 -4.78515,0.40777 -5.82994,1.66667 -2.34701,2.82801 -4.05648,2.59553 -4.05648,-0.55167 0,-3.59347 4.34323,-5.60797 11.04099,-5.12108 4.63271,0.33677 5.91533,1.05629 7.38919,4.14521 1.53621,3.21959 1.48358,4.19531 -0.37964,7.03896 -1.94904,2.97462 -1.95962,3.50474 -0.1068,5.35754 1.13094,1.13096 2.04708,3.36341 2.03585,4.96104 -0.058,8.24273 -11.14749,11.78634 -18.11889,5.78981 z M 92.869751,488.49563 v -25.42607 l 3,0.42607 c 2.73745,0.38877 3.0351,1.23966 3.40101,9.72253 0.2311,5.35748 1.078519,9.72715 1.999999,10.31292 2.07967,1.322 21.11832,1.322 23.19798,0 0.92149,-0.58577 1.7689,-4.95544 2,-10.31292 0.36592,-8.48287 0.66357,-9.33376 3.40101,-9.72253 l 3,-0.42607 v 25.42607 25.42606 h -3.33333 c -3.24716,0 -3.33386,-0.24989 -3.35375,-9.66666 -0.0112,-5.31667 -0.51197,-10.44148 -1.11276,-11.38847 -0.79124,-1.24719 -4.369,-1.61471 -12.97958,-1.33333 l -11.88724,0.38846 -0.387259,11 c -0.37639,10.69124 -0.4793,11 -3.66667,11 h -3.27941 z m 900.488759,9.8388 c -4.9461,-0.96932 -13.483,-9.43571 -15.90262,-15.77131 -3.28651,-8.6056 -1.98829,-19.46047 3.08982,-25.83519 9.7385,-12.22502 29.56279,-13.56742 40.39489,-2.73533 6.4312,6.43117 -1.0564,9.36931 -8.314,3.26243 -3.1628,-2.66126 -5.4234,-3.33334 -11.2121,-3.33334 -6.39659,0 -7.83719,0.53762 -12.23099,4.56422 -4.8441,4.43929 -4.9805,4.82008 -4.9805,13.91245 0,8.54108 0.3406,9.70373 3.9447,13.46555 7.6504,7.98529 19.11329,8.27421 26.32949,0.66364 3.1965,-3.37127 8.26,-4.311 9.8002,-1.81883 1.378,2.22964 -8.7197,11.74741 -14.0277,13.22203 -4.6919,1.30345 -11.47289,1.4655 -16.89119,0.40368 z m 100.03859,-2.19435 c -4.7771,-4.10909 -3.1555,-7.43039 1.7456,-3.57519 5.7368,4.51254 11.0604,2.77504 11.0604,-3.60986 0,-2.37778 -0.9319,-3.28638 -4,-3.9 -5.0888,-1.01776 -5.0605,-2.14843 0.1028,-4.09735 3.1966,-1.20657 4.0065,-2.22828 3.6666,-4.62565 -0.3322,-2.34356 -1.4167,-3.17268 -4.5497,-3.47843 -2.504,-0.24435 -4.7851,0.40777 -5.8299,1.66667 -2.347,2.82801 -4.0565,2.59553 -4.0565,-0.55167 0,-3.59347 4.3432,-5.60797 11.041,-5.12108 4.6327,0.33677 5.9153,1.05629 7.3892,4.14521 1.5362,3.21959 1.4836,4.19531 -0.3797,7.03896 -1.949,2.97462 -1.9596,3.50474 -0.1068,5.35754 1.131,1.13096 2.0471,3.36341 2.0359,4.96104 -0.058,8.24273 -11.1475,11.78634 -18.1189,5.78981 z m -53.8607,-23.64445 v -25.42607 l 3,0.42607 c 2.7374,0.38877 3.0351,1.23966 3.401,9.72253 0.2311,5.35748 1.0785,9.72715 2,10.31292 2.0797,1.322 21.1183,1.322 23.198,0 0.9215,-0.58577 1.7689,-4.95544 2,-10.31292 0.3659,-8.48287 0.6635,-9.33376 3.401,-9.72253 l 3,-0.42607 v 25.42607 25.42606 h -3.3333 c -3.2472,0 -3.3339,-0.24989 -3.3538,-9.66666 -0.011,-5.31667 -0.512,-10.44148 -1.1127,-11.38847 -0.7913,-1.24719 -4.369,-1.61471 -12.9796,-1.33333 l -11.8873,0.38846 -0.3872,11 c -0.3764,10.69124 -0.4793,11 -3.6667,11 h -3.2794 z M 449.53641,226.9689 c -6.6703,-3.82481 -11.33333,-12.48453 -11.33333,-21.0472 0,-8.60937 4.66511,-17.24226 11.33333,-20.97257 7.50703,-4.19956 19.86935,-4.19752 26.10443,0.004 15.12905,10.19547 15.54838,30.58381 0.85294,41.47116 -5.75988,4.26731 -19.96442,4.55411 -26.95737,0.54431 z m 24.16445,-7.08224 c 8.86464,-6.76138 9.05083,-20.56717 0.37583,-27.86669 -5.38972,-4.53516 -16.36208,-4.86209 -21.72044,-0.6472 -13.89404,10.92905 -7.16812,31.88227 10.23412,31.88227 5.10491,0 7.74285,-0.79975 11.11049,-3.36838 z m 20.50222,-13.96496 v -24 h 3.33333 c 3.20711,0 3.33333,0.322 3.33333,8.50342 0,5.67702 0.62275,9.02024 1.8736,10.05836 1.1758,0.97581 5.76926,1.40906 12.33334,1.16325 l 10.45973,-0.39169 0.39175,-9.66667 c 0.37566,-9.26992 0.52616,-9.66667 3.66666,-9.66667 h 3.27492 v 24 24 h -3.27725 c -3.16536,0 -3.29053,-0.35277 -3.66667,-10.33333 l -0.38941,-10.33333 h -12 -12 l -0.38941,10.33333 c -0.37614,9.98056 -0.50131,10.33333 -3.66667,10.33333 h -3.27725 z M 208.02521,134.33444 c -4.94615,-0.96932 -13.48304,-9.43571 -15.90263,-15.77131 -3.28651,-8.60561 -1.98829,-19.460465 3.08981,-25.835195 9.73848,-12.225024 29.56284,-13.567423 40.39493,-2.735325 6.43118,6.431175 -1.05645,9.369305 -8.31406,3.262425 -3.16272,-2.66125 -5.42333,-3.333333 -11.21205,-3.333333 -6.39659,0 -7.83724,0.537613 -12.23104,4.564213 -4.84411,4.43929 -4.98042,4.82007 -4.98042,13.912445 0,8.54109 0.34059,9.70375 3.94463,13.46556 7.6504,7.98529 19.11329,8.27421 26.32947,0.66364 3.19654,-3.37127 8.26005,-4.311 9.80029,-1.81883 1.37798,2.22964 -8.71977,11.74742 -14.02775,13.22203 -4.69188,1.30345 -11.4729,1.46551 -16.89118,0.40368 z m 100.03857,-2.19435 c -4.77711,-4.10909 -3.15544,-7.43038 1.74564,-3.57518 5.73677,4.51253 11.06033,2.77504 11.06033,-3.60987 0,-2.37777 -0.93189,-3.28637 -4,-3.9 -5.0888,-1.01776 -5.06043,-2.14843 0.1028,-4.09734 3.1966,-1.20659 4.00649,-2.22829 3.66667,-4.62565 -0.3322,-2.34358 -1.41668,-3.1727 -4.54972,-3.47844 -2.50404,-0.24435 -4.78515,0.40777 -5.82994,1.66667 -2.34701,2.82801 -4.05648,2.59553 -4.05648,-0.55167 0,-3.59348 4.34323,-5.60798 11.04099,-5.12109 4.63271,0.33677 5.91533,1.0563 7.38919,4.14521 1.53621,3.21961 1.48358,4.19533 -0.37964,7.03898 -1.94904,2.97461 -1.95962,3.50473 -0.1068,5.35753 1.13094,1.13096 2.04708,3.36341 2.03585,4.96104 -0.058,8.24273 -11.14749,11.78635 -18.11889,5.78981 z m -53.8607,-23.64446 V 83.069567 l 3,0.426068 c 2.73746,0.38878 3.0351,1.239672 3.40102,9.72254 0.23109,5.35748 1.07852,9.727145 2,10.312915 2.07966,1.32199 21.1183,1.32199 23.19797,0 0.92148,-0.58577 1.76891,-4.955435 2,-10.312915 0.36592,-8.482868 0.66356,-9.33376 3.40101,-9.72254 l 3,-0.426068 v 25.426063 25.42608 h -3.33333 c -3.24716,0 -3.33387,-0.2499 -3.35375,-9.66667 -0.0107,-5.31667 -0.51197,-10.44147 -1.11276,-11.38846 -0.79125,-1.24719 -4.369,-1.61472 -12.97958,-1.33333 l -11.88724,0.38846 -0.38726,11 c -0.37638,10.69124 -0.4793,11 -3.66666,11 h -3.27942 z"
       id="path402" />
  </g>
</svg>
